<svg xmlns="http://www.w3.org/2000/svg" width="1400" height="3480">
<rect width="100%" height="100%" fill="white"/>
<text x="40" y="60" font-family="DejaVu Sans Mono, monospace" font-size="22" fill="#111">
<tspan x="40" y="60"># MAX-520 — Workshop curriculum delta from objections + proof</tspan>
<tspan x="40" y="88"></tspan>
<tspan x="40" y="116">## Qué se entrega</tspan>
<tspan x="40" y="144"></tspan>
<tspan x="40" y="172">Paquete de handoff para la próxima iteración del workshop, traduciendo objeciones ya detectadas en cambios concretos de currículo, oferta y entrega.</tspan>
<tspan x="40" y="200"></tspan>
<tspan x="40" y="228">## Artefactos fuente usados</tspan>
<tspan x="40" y="256"></tspan>
<tspan x="40" y="284">- `artifacts/MAX-477/02-objection-library.md`</tspan>
<tspan x="40" y="312">- `artifacts/MAX-477/01-proof-bank.md`</tspan>
<tspan x="40" y="340">- `artifacts/MAX-485/FINAL-DELIVERY.md`</tspan>
<tspan x="40" y="368">- `artifacts/MAX-469/03-faq-objection-handling.md`</tspan>
<tspan x="40" y="396">- `artifacts/MAX-469/02-offer-stack-revision.md`</tspan>
<tspan x="40" y="424">- `artifacts/MAX-513/MAX-513-klaviyo-editorial-spine.md`</tspan>
<tspan x="40" y="452"></tspan>
<tspan x="40" y="480">## Cómo leer este handoff</tspan>
<tspan x="40" y="508"></tspan>
<tspan x="40" y="536">- **Diagnóstico:** resume las 5 fricciones principales que hoy frenan compra, show-up o cierre.</tspan>
<tspan x="40" y="564">- **Cambios concretos:** baja cada fricción a decisiones de currículo, oferta y entrega.</tspan>
<tspan x="40" y="592">- **Priorización:** separa qué conviene mover ya en la próxima cohorte versus qué dejar como capa 2.</tspan>
<tspan x="40" y="620">- **Business delta:** deja explícito el impacto esperado si se ejecuta el Tier 1.</tspan>
<tspan x="40" y="648"></tspan>
<tspan x="40" y="676">## Diagnóstico — 5 objeciones o fricciones principales</tspan>
<tspan x="40" y="704"></tspan>
<tspan x="40" y="732">### 1) &quot;No sé si esto es para mi nivel&quot;</tspan>
<tspan x="40" y="760">**Señal detectada:** aparece repetido en FAQ y objection handling como duda de experiencia mínima, stack y si hace falta saber mucho.</tspan>
<tspan x="40" y="788"></tspan>
<tspan x="40" y="816">**Qué está frenando:**</tspan>
<tspan x="40" y="844">- Baja registro de gente calificada porque no entiende si aplica.</tspan>
<tspan x="40" y="872">- También deja entrar gente no ideal, lo que baja show-up y satisfacción.</tspan>
<tspan x="40" y="900"></tspan>
<tspan x="40" y="928">**Lectura operativa:** hoy el workshop comunica valor, pero no filtra ni califica con suficiente precisión antes de la compra o reserva.</tspan>
<tspan x="40" y="956"></tspan>
<tspan x="40" y="984">### 2) &quot;No tengo tiempo para aprovecharlo&quot;</tspan>
<tspan x="40" y="1012">**Señal detectada:** aparece la objeción de carga horaria y miedo a comprar otro curso que queda a medias.</tspan>
<tspan x="40" y="1040"></tspan>
<tspan x="40" y="1068">**Qué está frenando:**</tspan>
<tspan x="40" y="1096">- Reduce compra en perfiles con trabajo full-time.</tspan>
<tspan x="40" y="1124">- Baja asistencia en vivo si el compromiso semanal parece ambiguo o pesado.</tspan>
<tspan x="40" y="1152"></tspan>
<tspan x="40" y="1180">**Lectura operativa:** la promesa de transformación existe, pero el costo de implementación semanal no está empaquetado como algo liviano y controlable.</tspan>
<tspan x="40" y="1208"></tspan>
<tspan x="40" y="1236">### 3) &quot;Ya probé cursos / prompts / IA y no me cambió nada&quot;</tspan>
<tspan x="40" y="1264">**Señal detectada:** la librería insiste con el contraste entre teoría vs código real, curso grabado vs workshop práctico.</tspan>
<tspan x="40" y="1292"></tspan>
<tspan x="40" y="1320">**Qué está frenando:**</tspan>
<tspan x="40" y="1348">- Escepticismo alto.</tspan>
<tspan x="40" y="1376">- La propuesta puede sonar a “otro curso de IA” si no se demuestra diferencia estructural.</tspan>
<tspan x="40" y="1404"></tspan>
<tspan x="40" y="1432">**Lectura operativa:** falta mostrar con más fuerza el mecanismo único del workshop, no solo sus temas.</tspan>
<tspan x="40" y="1460"></tspan>
<tspan x="40" y="1488">### 4) &quot;No sé si vale el precio&quot;</tspan>
<tspan x="40" y="1516">**Señal detectada:** objection handling y offer revision intentan justificar ROI, ahorro de tiempo y valor de bonus.</tspan>
<tspan x="40" y="1544"></tspan>
<tspan x="40" y="1572">**Qué está frenando:**</tspan>
<tspan x="40" y="1600">- El precio compite contra recursos gratis y cursos baratos.</tspan>
<tspan x="40" y="1628">- Si el outcome no se ve concreto, el ticket parece riesgo, no inversión.</tspan>
<tspan x="40" y="1656"></tspan>
<tspan x="40" y="1684">**Lectura operativa:** el valor está narrado, pero todavía no está suficientemente anclado a resultados concretos de semana 1 y quick wins visibles.</tspan>
<tspan x="40" y="1712"></tspan>
<tspan x="40" y="1740">### 5) &quot;¿Qué pasa después del workshop?&quot;</tspan>
<tspan x="40" y="1768">**Señal detectada:** aparece explícito en objections y follow-up, junto con preguntas sobre soporte, grabaciones y continuidad.</tspan>
<tspan x="40" y="1796"></tspan>
<tspan x="40" y="1824">**Qué está frenando:**</tspan>
<tspan x="40" y="1852">- Miedo a quedarse solo después de las clases.</tspan>
<tspan x="40" y="1880">- Baja cierre si parece una experiencia intensa pero sin implementación acompañada.</tspan>
<tspan x="40" y="1908"></tspan>
<tspan x="40" y="1936">**Lectura operativa:** el workshop necesita vender mejor la continuidad y la transferencia al trabajo real, no solo el evento en vivo.</tspan>
<tspan x="40" y="1964"></tspan>
<tspan x="40" y="1992">## Propuesta de cambios concretos</tspan>
<tspan x="40" y="2020"></tspan>
<tspan x="40" y="2048">## A. Cambios de currículo</tspan>
<tspan x="40" y="2076"></tspan>
<tspan x="40" y="2104">### 1) Abrir con un módulo 0 de calificación + setup</tspan>
<tspan x="40" y="2132">**Cambio:** agregar una sesión o prework corto llamado `Antes de entrar: stack, nivel y objetivo`.</tspan>
<tspan x="40" y="2160"></tspan>
<tspan x="40" y="2188">**Incluye:**</tspan>
<tspan x="40" y="2216">- checklist de nivel mínimo</tspan>
<tspan x="40" y="2244">- stacks donde aplica y donde no</tspan>
<tspan x="40" y="2272">- definición de objetivo operativo para cada alumno</tspan>
<tspan x="40" y="2300">- setup técnico previo para llegar listo</tspan>
<tspan x="40" y="2328"></tspan>
<tspan x="40" y="2356">**Objeciones que resuelve:** nivel, fit, confusión inicial.</tspan>
<tspan x="40" y="2384"></tspan>
<tspan x="40" y="2412">**Impacto esperado:** mejor show-up y mejor calidad de cohorte porque reduce incertidumbre antes del día 1.</tspan>
<tspan x="40" y="2440"></tspan>
<tspan x="40" y="2468">### 2) Reestructurar semana 1 alrededor de un quick win publicable</tspan>
<tspan x="40" y="2496">**Cambio:** que la primera semana termine con un output visible, útil y compartible, no solo aprendizaje conceptual.</tspan>
<tspan x="40" y="2524"></tspan>
<tspan x="40" y="2552">**Incluye:**</tspan>
<tspan x="40" y="2580">- workflow base usable en proyecto real</tspan>
<tspan x="40" y="2608">- mini entrega publicada o integrada</tspan>
<tspan x="40" y="2636">- checklist de “ya lo tengo andando”</tspan>
<tspan x="40" y="2664"></tspan>
<tspan x="40" y="2692">**Objeciones que resuelve:** escepticismo, precio, “ya probé cosas”.</tspan>
<tspan x="40" y="2720"></tspan>
<tspan x="40" y="2748">**Impacto esperado:** acelera percepción de valor y reduce abandono temprano.</tspan>
<tspan x="40" y="2776"></tspan>
<tspan x="40" y="2804">### 3) Convertir el temario en `bloques por problema real`, no por herramienta</tspan>
<tspan x="40" y="2832">**Cambio:** presentar el workshop como resolución de problemas operativos.</tspan>
<tspan x="40" y="2860"></tspan>
<tspan x="40" y="2888">**Ejemplo de bloques:**</tspan>
<tspan x="40" y="2916">- shippear más rápido sin romper producción</tspan>
<tspan x="40" y="2944">- revisar código con IA sin perder criterio</tspan>
<tspan x="40" y="2972">- pasar de prompt suelto a workflow repetible</tspan>
<tspan x="40" y="3000">- integrar IA al proyecto real, no al sandbox</tspan>
<tspan x="40" y="3028"></tspan>
<tspan x="40" y="3056">**Objeciones que resuelve:** diferenciación, relevancia, valor percibido.</tspan>
<tspan x="40" y="3084"></tspan>
<tspan x="40" y="3112">**Impacto esperado:** más claridad de compra y mejor retención de atención.</tspan>
<tspan x="40" y="3140"></tspan>
<tspan x="40" y="3168">### 4) Incluir oficina de implementación obligatoria o muy visible</tspan>
<tspan x="40" y="3196">**Cambio:** atar explícitamente una instancia de office hours a cada fase crítica.</tspan>
<tspan x="40" y="3224"></tspan>
<tspan x="40" y="3252">**Incluye:**</tspan>
<tspan x="40" y="3280">- 1 sesión semanal de implementación</tspan>
<tspan x="40" y="3308">- revisión de bloqueos reales</tspan>
<tspan x="40" y="3336">- espacio para adaptar el material al caso del alumno</tspan>
<tspan x="40" y="3364"></tspan>
<tspan x="40" y="3392">**Objeciones que resuelve:** continuidad, soporte, miedo a quedarse solo.</tspan>
</text></svg>